# xmcd
#
# Track frame offsets: 
#        150
#        17613
#        33920
#        48830
#        65706
#        81973
#        97652
#        114299
#        128511
#        145526
#
# Disc length: 2171 seconds
#
# Revision: 2
# Processed by: cddbd v1.5.2PL0 Copyright (c) Steve Scherf et al.
# Submitted via: ExactAudioCopy v0.99pb3
#
DISCID=6e08790a
DTITLE=Aracely Arambula - Sexy
DYEAR=2005
DGENRE=Latin
TTITLE0=Maltida Soledad
TTITLE1=Sola
TTITLE2=Todo
TTITLE3=Sexy
TTITLE4=Debi
TTITLE5=Me Canse
TTITLE6=Casi
TTITLE7=Bruja
TTITLE8=A Escondidas
TTITLE9=Nada
EXTD=YEAR: 2005
EXTT0=
EXTT1=
EXTT2=
EXTT3=
EXTT4=
EXTT5=
EXTT6=
EXTT7=
EXTT8=
EXTT9=
PLAYORDER=
